<svg xmlns="http://www.w3.org/2000/svg" viewBox="0 0 454.43 444.33"><defs><style>.cls-1{fill:none;}.cls-1,.cls-10,.cls-2,.cls-4,.cls-5,.cls-6,.cls-7,.cls-8,.cls-9{stroke:#000;stroke-miterlimit:10;}.cls-2{font-size:5.94px;font-family:MyriadPro-Regular, Myriad Pro;}.cls-3{letter-spacing:0.01em;}.cls-5{fill:#c3e2f6;}.cls-10,.cls-5,.cls-6,.cls-7,.cls-8,.cls-9{opacity:0.42;}.cls-6{fill:#f9c0b6;}.cls-7{fill:#fad3e4;}.cls-8{fill:#f7f4c4;}.cls-9{fill:#dbeabc;}.cls-10{fill:#b9bdde;}</style></defs><title>Asset 1</title><g id="Layer_2" data-name="Layer 2"><g id="Layer_1-2" data-name="Layer 1"><polygon class="cls-1" points="447.55 419.55 447.57 405.38 453.07 405.39 453.02 437.39 443.35 437.38 443.36 435.54 440.69 435.54 440.71 420.2 447.54 420.22 447.55 419.55"/><polyline class="cls-1" points="440.48 434.41 371.73 434.31 371.75 422.68 377.13 422.69 377.13 419.82 359 419.79 358.98 436.04 371.79 436.06 371.73 434.31"/><line class="cls-1" x1="359.02" y1="434.25" x2="339.52" y2="434.22"/><rect class="cls-1" x="330.11" y="431.71" width="9.04" height="3.5" transform="matrix(-1, 0, 0, -1, 668.61, 867.43)"/><line class="cls-1" x1="330.11" y1="434.37" x2="265.11" y2="434.27"/><rect class="cls-1" x="258.86" y="431.64" width="6.12" height="3.63" transform="translate(523.19 867.31) rotate(-179.91)"/><rect class="cls-1" x="251.26" y="360.07" width="6.13" height="3.63" transform="translate(510.35 722.55) rotate(179.73)"/><rect class="cls-1" x="232.32" y="360.16" width="6.13" height="3.62" transform="translate(472.48 722.82) rotate(179.73)"/><rect class="cls-1" x="221.72" y="360.2" width="8.2" height="3.63" transform="translate(453.36 722.95) rotate(179.73)"/><rect class="cls-1" x="204.7" y="360.29" width="6.12" height="3.62" transform="translate(417.23 723.21) rotate(179.73)"/><rect class="cls-1" x="178.71" y="360.41" width="5.7" height="3.63" transform="translate(364.83 723.58) rotate(179.73)"/><rect class="cls-1" x="194.1" y="360.33" width="8.2" height="3.63" transform="translate(398.11 723.35) rotate(179.73)"/><line class="cls-1" x1="258.69" y1="434.1" x2="157.86" y2="433.95"/><rect class="cls-1" x="217.69" y="434.04" width="9.83" height="3.17" transform="translate(444.56 871.59) rotate(-179.91)"/><rect class="cls-1" x="93.65" y="431.98" width="10.81" height="2.54" transform="translate(197.46 866.66) rotate(-179.91)"/><rect class="cls-1" x="14.68" y="434.99" width="7.02" height="1.65" transform="translate(35.72 871.67) rotate(-179.91)"/><rect class="cls-1" x="419.88" y="419.89" width="9.87" height="3.12" transform="translate(848.99 843.54) rotate(-179.91)"/><rect class="cls-1" x="448.14" y="359.9" width="5.75" height="15" transform="translate(903.77 732.67) rotate(179.73)"/><rect class="cls-1" x="448.01" y="327.61" width="5.75" height="25.3" transform="translate(903.38 678.37) rotate(179.73)"/><polygon class="cls-1" points="439.79 294.33 441.67 294.32 441.7 301.3 447.83 301.27 447.89 313.92 453.64 313.89 453.52 288.6 447.77 288.62 447.77 288.63 444.27 288.64 444.28 290.44 439.78 290.46 439.79 294.33"/><rect class="cls-1" x="408.04" y="291.08" width="11.25" height="3.5" transform="translate(828.71 583.7) rotate(179.73)"/><polygon class="cls-1" points="357.21 302.22 369.58 302.17 372.71 302.15 372.67 294.78 387.05 294.71 387.03 291.21 372.65 291.28 372.65 291.25 372.62 284.28 369.5 284.29 369.53 291.26 357.15 291.32 357.21 302.22"/><polyline class="cls-1" points="229.54 399.88 231.04 399.89 231.04 400.2 231.06 403.08 178.18 403.33 178.19 405.07 174.32 405.09 170.85 405.1 170.84 402.64 174.28 402.63 175.22 402.13 175.03 360.46 178.35 360.45 178.51 393.62 204.34 393.5 204.35 395.99 178.69 395.95 178.71 400.12 229.54 399.88 229.52 395.88 204.35 395.99 204.34 393.5 229.51 393.38 229.37 363.27"/><polyline class="cls-1" points="229.97 362.87 232.37 362.86 232.37 363.25 232.54 399.52 258.21 399.4 258.18 359.9 259.85 359.89 260.19 431.44"/><polyline class="cls-1" points="232.54 399.52 232.72 402.61 257.97 402.49 258.11 431.07 178.69 431.45 178.62 416.82 174.75 416.84 174.76 418.96 175.76 418.96 175.82 432.96 175.83 434.37"/><polygon class="cls-1" points="158.73 404.62 159.98 404.62 159.97 402.79 155.06 402.81 155.06 404.98 156.06 404.97 156.2 432.55 116.36 432.74 116.38 435.49 159.04 435.29 158.73 404.62"/><polygon class="cls-1" points="135.81 404.77 145.19 404.73 145.18 402.98 137.68 403.02 137.65 397.27 135.78 397.27 135.78 398.15 83.41 398.4 83.24 362.27 128.11 362.06 128.23 386.56 158.6 386.42 158.59 382.92 156.46 382.93 156.47 384.43 130.34 384.55 130.25 365.18 138.88 365.13 138.86 362.13 156.11 362.05 156.16 372.8 158.79 372.79 158.73 360.42 136.85 360.52 136.87 363.14 130.37 363.18 130.35 359.68 82.48 359.9 82.48 361.03 46.48 361.2 46.5 364.57 79.54 364.42 79.86 431.92 48.53 432.06 48.49 425.06 46.49 425.07 46.53 432.57 33.2 432.64 33.16 424.97 30.66 424.98 30.7 432.81 16.36 432.88 16.3 419.05 18.46 419.04 18.45 416.71 1.12 416.79 1.21 436.29 47.21 436.07 83.55 435.9 83.4 405.06 99.73 404.99 99.71 400.15 135.88 399.98 135.81 404.77"/><rect class="cls-1" x="83.38" y="400.03" width="14.17" height="2.83" transform="translate(182.83 802.46) rotate(179.73)"/><polygon class="cls-1" points="7.69 431.89 3.19 431.88 3.21 418.71 13.05 418.73 13.03 429.56 7.71 429.57 7.69 431.89"/><rect class="cls-1" x="1.2" y="358.27" width="6" height="10.33" transform="translate(10.12 726.86) rotate(179.73)"/><rect class="cls-1" x="45.47" y="411.11" width="2.17" height="8.17" transform="translate(92.48 830.46) rotate(-179.91)"/><rect class="cls-1" x="46.59" y="390.4" width="2.17" height="6.21" transform="translate(97.22 786.78) rotate(179.73)"/><rect class="cls-1" x="46.56" y="383.1" width="2.17" height="6.13" transform="translate(97.11 772.11) rotate(179.73)"/><rect class="cls-1" x="46.51" y="364.73" width="2.17" height="6.13" transform="translate(96.94 735.37) rotate(179.73)"/><text class="cls-2" transform="translate(117.89 325.25) rotate(179.73)">ENT<tspan class="cls-3" x="9.78" y="0">R</tspan><tspan x="13.01" y="0">ANCE</tspan></text><polygon class="cls-4" points="111.34 323.26 111.33 321.1 113.33 321.09 104.98 315.96 97 320.83 99.67 320.82 99.68 323.49 111.34 323.26"/><path class="cls-1" d="M78.38,418.83l-30.75,0v-3l30.92,0"/><path class="cls-1" d="M79.5,391.92l-30.75.15v-3l30.92-.15"/><rect class="cls-1" x="28.98" y="415.34" width="16.51" height="2.76" transform="translate(73.85 833.5) rotate(-179.91)"/><rect class="cls-1" x="368.95" y="225.87" width="3.67" height="26.33" transform="translate(742.69 476.31) rotate(179.73)"/><polygon class="cls-1" points="361.46 207.24 368.8 207.21 368.81 208.88 372.47 208.86 372.35 182.53 368.68 182.54 368.73 192.21 361.39 192.25 361.46 207.24"/><polygon class="cls-1" points="372.19 149.79 372.16 142.78 386.82 142.71 386.81 140.12 372.15 140.19 368.48 140.21 368.49 142.79 368.52 149.81 372.19 149.79"/><polygon class="cls-1" points="407.91 142.61 443.45 142.44 443.46 145.19 452.84 145.14 452.83 144.21 452.81 139.96 452.74 124.58 447.3 124.61 447.38 139.84 407.9 140.02 407.91 142.61"/><polygon class="cls-1" points="440.82 106.87 447.16 106.84 447.18 111.67 452.85 111.64 452.69 79.14 447.02 79.17 447.11 96.17 440.77 96.2 440.82 106.87"/><rect class="cls-1" x="446.79" y="57.16" width="5.67" height="14.67" transform="translate(899.54 126.85) rotate(179.73)"/><polygon class="cls-1" points="8.15 431.08 7.95 411.56 2.28 411.61 2.48 431.14 2.61 443.83 8.28 443.77 14.13 443.71 14 431.02 8.15 431.08"/><polygon class="cls-1" points="83.05 425.39 83.18 437.76 79.3 437.8 79.33 440.68 83.21 440.64 86.7 440.6 100.2 440.46 100.05 425.21 83.05 425.39"/><rect class="cls-1" x="112.18" y="424.42" width="9" height="2.75" transform="translate(-4.31 1.2) rotate(-0.58)"/><rect class="cls-1" x="163.43" y="423.9" width="9" height="2.75" transform="translate(-4.3 1.72) rotate(-0.58)"/><polygon class="cls-1" points="223.63 423.34 192.16 423.66 192.19 426.41 223.66 426.09 223.79 438.84 198.91 439.1 198.89 438 196.13 438.02 196.14 439.12 196.18 442.7 198.94 442.67 223.82 442.42 227.47 442.38 227.44 438.81 227.31 426.05 227.28 423.3 223.63 423.34"/><polyline class="cls-1" points="227.95 29.38 227.94 26.71 230.94 26.69 231.24 90.03 194.07 90.2 194.09 94.04 205.43 93.98 205.41 90.15 206.74 90.31 206.83 109.48 191.33 109.55 190.89 15.38 193.55 15.37 193.62 29.37 214.78 29.27 214.8 32.27 193.8 32.37 194.07 88.7 228.4 88.54 228.14 32.87 228.13 31.71 226.46 31.72 226.45 28.72 228.19 28.71"/><polygon class="cls-1" points="267.67 423.39 263.92 423.43 263.91 423.18 248.41 423.34 248.57 438.84 264.07 438.68 264.05 436.43 267.8 436.39 267.67 423.39"/><rect class="cls-1" x="303.55" y="435.29" width="31.67" height="2.67" transform="translate(-4.41 3.26) rotate(-0.58)"/><rect class="cls-1" x="356.55" y="434.81" width="19.62" height="2.67" transform="translate(-4.4 3.73) rotate(-0.58)"/><rect class="cls-1" x="3.9" y="294.25" width="10.33" height="10.33" transform="translate(19.55 598.79) rotate(179.73)"/><rect class="cls-1" x="3.44" y="198.92" width="10.33" height="10.33" transform="translate(18.19 408.12) rotate(179.73)"/><polyline class="cls-1" points="5.35 289.85 17.1 289.79 17.08 286.29 19 286.28 19.11 309.62 6.69 309.68 6.68 307.84 16.52 307.79 16.45 291.54 5.36 291.6 5.35 289.85 5.35 289.6"/><polyline class="cls-1" points="6.59 305.01 6.68 307.84 6.69 309.68 0.61 309.62 0.5 286.54 5.42 286.52 5.44 291.6"/><line class="cls-1" x1="12.54" y1="294.42" x2="12.53" y2="291.55"/><polyline class="cls-1" points="5.64 209.35 5.65 212.93 2.99 212.94 2.98 211.19 1.73 211.2 1.65 194.12 16.06 194.05 16.05 190.8 18.88 190.78 18.99 214.12 16.24 214.13 16.22 209.21 13.8 209.23 13.88 207.39 16.04 207.38 15.99 196.38 13.82 196.39 13.84 198.89 12.34 198.9 12.32 196.32 3.91 196.36 3.92 198.86"/><polyline class="cls-1" points="16.16 108.71 16.2 116.96 18.36 116.95 18.31 105.79 13.48 105.81 13.43 94.35 18.22 94.33 18.19 88.83 15.69 88.84 15.71 92.22 1.58 92.28 1.66 109.41 16.37 109.34"/><rect class="cls-1" x="3.13" y="97.75" width="9" height="9" transform="translate(15.74 204.47) rotate(179.73)"/><rect class="cls-1" x="16.24" y="66.96" width="1.5" height="10.75" transform="translate(34.32 144.59) rotate(179.73)"/><rect class="cls-1" x="16.72" y="169.83" width="1.5" height="10.75" transform="translate(35.78 350.33) rotate(179.73)"/><rect class="cls-1" x="17.18" y="265.83" width="1.5" height="10.75" transform="translate(37.15 542.33) rotate(179.73)"/><polygon class="cls-1" points="453.46 421.11 453.45 419.95 438.64 420.1 438.58 414.35 437.08 414.37 437.16 421.64 437.17 421.64 437.17 421.74 442.45 421.69 442.58 435.33 431.81 435.44 431.82 437.06 448.12 436.9 448.11 435.27 444.67 435.31 444.54 421.66 451.38 421.59 451.54 436.75 453.63 436.73 453.47 421.11 453.46 421.11"/><rect class="cls-1" x="442.77" y="429.02" width="7.5" height="7.5" transform="translate(-4.36 4.54) rotate(-0.58)"/><polyline class="cls-1" points="231.25 87.88 240.63 87.84 240.67 96.4 214.17 96.53 214.14 90.4"/><polyline class="cls-1" points="231.24 90.03 237.95 90 237.97 94.6 215.78 94.7 215.76 90.2"/><rect class="cls-1" x="80" y="280.29" width="51.25" height="10.5" transform="translate(212.6 570.58) rotate(179.73)"/><rect class="cls-1" x="127.25" y="280.18" width="4" height="10.5" transform="translate(259.85 570.24) rotate(179.73)"/><rect class="cls-1" x="111.58" y="280.25" width="4" height="10.5" transform="translate(228.52 570.47) rotate(179.73)"/><rect class="cls-1" x="95.25" y="280.33" width="4" height="10.5" transform="translate(195.85 570.7) rotate(179.73)"/><rect class="cls-1" x="80.09" y="280.4" width="4" height="10.5" transform="translate(165.52 570.91) rotate(179.73)"/><rect class="cls-5" x="6.81" y="309.08" width="254.09" height="51.41" transform="translate(269.3 668.93) rotate(179.73)"/><rect class="cls-6" x="16.46" y="208.76" width="190.58" height="100.45" transform="translate(224.72 517.45) rotate(179.73)"/><rect class="cls-7" x="16.98" y="2.76" width="189.33" height="206" transform="translate(223.79 210.99) rotate(179.73)"/><polygon class="cls-8" points="206.49 140.98 206.24 88.64 228.4 88.54 228.05 15.21 357.89 14.59 357.82 0.92 446.48 0.5 447.14 139.84 206.49 140.98"/><polygon class="cls-9" points="260.78 308.48 260.75 302.54 369.25 302.02 368.48 140.21 206.48 140.98 207.25 302.79 207.28 308.73 260.78 308.48"/><polygon class="cls-10" points="261.2 433.39 448.53 432.5 447.91 301.17 441.05 301.2 441.02 295.2 373.02 295.52 373.05 301.52 260.58 302.06 261.2 433.39"/></g></g></svg>