<svg xmlns="http://www.w3.org/2000/svg" viewBox="0 0 202.42 94.77"><defs><style>.cls-1{fill:#0a5693;}.cls-2{fill:#fcfdfd;}.cls-3{fill:#025596;}</style></defs><title>Asset 1</title><g id="Layer_2" data-name="Layer 2"><g id="Layer_1-2" data-name="Layer 1"><path d="M123.07,72.45h8.47v1.84H120.72V56.92h2.35Z"/><path d="M136.37,58.08H134v-2.4h2.35Zm0,16.21H134V61.38h2.35Z"/><path d="M151,68.32a7.09,7.09,0,0,1-1.34,4.5A4.43,4.43,0,0,1,146,74.53a4.68,4.68,0,0,1-2.24-.51,4.15,4.15,0,0,1-1.57-1.5l-.38,1.75H140V55.68h2.35v7.23a4.08,4.08,0,0,1,1.51-1.31,4.62,4.62,0,0,1,2.1-.45A4.29,4.29,0,0,1,149.66,63a8.59,8.59,0,0,1,1.34,5Zm-2.35-.25a7.12,7.12,0,0,0-.82-3.62,2.69,2.69,0,0,0-2.49-1.4,3.08,3.08,0,0,0-1.83.53A3.74,3.74,0,0,0,142.33,65V70.6a3.84,3.84,0,0,0,1.19,1.49,3.06,3.06,0,0,0,1.85.54,2.79,2.79,0,0,0,2.47-1.18,5.42,5.42,0,0,0,.81-3.12Z"/><path d="M160,63.45l-1.2-.07a2.69,2.69,0,0,0-1.57.44,2.83,2.83,0,0,0-1,1.24v9.22h-2.35V61.38H156l.23,1.88a4.47,4.47,0,0,1,1.35-1.56,3.16,3.16,0,0,1,1.85-.56,2.91,2.91,0,0,1,.5,0l.39.09Z"/><path d="M170.34,74.28q-.12-.58-.18-1a7.49,7.49,0,0,1-.08-.9,5.48,5.48,0,0,1-1.71,1.56,4.38,4.38,0,0,1-2.27.63,4.22,4.22,0,0,1-3.07-1A3.79,3.79,0,0,1,162,70.66a3.33,3.33,0,0,1,1.5-2.89,7,7,0,0,1,4.06-1h2.55V65.45a2.37,2.37,0,0,0-.69-1.79,2.71,2.71,0,0,0-2-.66,2.84,2.84,0,0,0-1.85.57,1.72,1.72,0,0,0-.7,1.37l-2.23,0,0-.07a3.09,3.09,0,0,1,1.32-2.58,5.46,5.46,0,0,1,3.62-1.17,5.33,5.33,0,0,1,3.53,1.11,4,4,0,0,1,1.34,3.21v6.21A12.18,12.18,0,0,0,172.5,73a6.86,6.86,0,0,0,.26,1.26Zm-3.9-1.72a4.18,4.18,0,0,0,2.3-.66,3.12,3.12,0,0,0,1.34-1.5v-2.1h-2.64a3.42,3.42,0,0,0-2.27.72,2.14,2.14,0,0,0-.85,1.68,1.77,1.77,0,0,0,.54,1.36A2.25,2.25,0,0,0,166.45,72.57Z"/><path d="M181.95,63.45l-1.2-.07a2.69,2.69,0,0,0-1.57.44,2.83,2.83,0,0,0-1,1.24v9.22h-2.35V61.38h2.1l.23,1.88a4.47,4.47,0,0,1,1.35-1.56,3.16,3.16,0,0,1,1.85-.56,2.91,2.91,0,0,1,.5,0l.39.09Z"/><path d="M188.34,69.5l.42,1.62h.07L192,61.38h2.61l-5.43,14.88a6.7,6.7,0,0,1-1.4,2.27,3.23,3.23,0,0,1-2.46,1,5.11,5.11,0,0,1-.73-.07q-.44-.07-.68-.12l.24-1.85.42,0,.63,0a1.45,1.45,0,0,0,1.23-.67,6.93,6.93,0,0,0,.8-1.48l.56-1.35L183,61.38h2.62Z"/><path d="M139.51,15.28V38.61q0,6-4,9.43a15.41,15.41,0,0,1-10.36,3.4,15.23,15.23,0,0,1-10.3-3.4q-4-3.4-4-9.43V15.28h7.18V38.61A7.34,7.34,0,0,0,120,44.08,7,7,0,0,0,125.16,46a7.19,7.19,0,0,0,5.24-1.89,7.29,7.29,0,0,0,1.93-5.46V15.28Z"/><path d="M166.08,35.26H152.85V45.45h15.72v5.49H145.7V15.28h22.82v5.51H152.85v9h13.22Z"/><path d="M202.42,50.93h-7.15V36.12H180.75V50.93h-7.15V15.28h7.15V30.61h14.52V15.28h7.15Z"/><path class="cls-1" d="M47.76,92.17c0,.64,0,1.28,0,1.92,0,.32.18.49.53.53a3.82,3.82,0,0,1-1.44.12c.64-.24.62-.63.59-1.05,0-.62-.06-1.24-.08-1.86,0-.35,0-.73-.67-.72,1.06-.34,1.24-.27,1.62.5l1.07,2.1.9-2.15c.35-.84.35-.84,1.22-.72-.65,1-.09,2.1-.21,3.14,0,.32.2.44.47.59l-1.51.07c.55-.23.39-.7.39-1.11s0-1.08,0-1.62l-.18,0-1.22,2.89-1.41-2.72-.11-.16c-.1.08-.06.18,0,.27"/><path class="cls-1" d="M41.39,90.52a3.2,3.2,0,0,1,1.31.22c-.55,0-.61.38-.67.76a22.12,22.12,0,0,1-.57,2.82l-1.94-3.23c-.16,1-.62,1.86-.33,2.88l-1-.19c.51-.06.57-.43.63-.81.08-.56.15-1.12.26-1.68s.15-.9-.44-1.22c.69,0,1.14.1,1.43.7.38.78.87,1.5,1.39,2.37.12-.78.22-1.41.33-2,.06-.32-.18-.43-.41-.58"/><path class="cls-1" d="M44.66,94.67a1.83,1.83,0,0,1-2-1.91,2,2,0,1,1,2,1.91m-1.33-1.85a2.2,2.2,0,0,0,.23,1,1.14,1.14,0,0,0,2,.14,2.26,2.26,0,0,0,.17-2.39,1.14,1.14,0,0,0-2-.06,2.67,2.67,0,0,0-.34,1.31"/><path class="cls-1" d="M57.11,89.83,57.43,91c-.44-.37-.78-.83-1.43-.75a1.39,1.39,0,0,0-.91.46,2.11,2.11,0,0,0,.19,2.58c.66.69,1.26.57,2.5-.5A1.65,1.65,0,0,1,56.23,94a1.79,1.79,0,0,1-1.94-1,2,2,0,0,1,2-2.92c.28,0,.57.12.81-.23"/><path class="cls-1" d="M51.88,90.71l1.6-.19c-.51.27-.42.69-.36,1.12.09.63.16,1.27.22,1.9,0,.35.12.65.57.76l-1.6.18c.49-.2.44-.57.39-1-.09-.69-.16-1.38-.25-2.06-.06-.49-.07-.49-.58-.74"/><path class="cls-2" d="M47.76,92.17c0-.09-.08-.19,0-.27l.11.16-.13.11"/><path class="cls-1" d="M87.86,47.3A40.18,40.18,0,1,1,48,7.09,40.24,40.24,0,0,1,87.86,47.3m-1.42,0A38.76,38.76,0,1,0,48.5,86,38.81,38.81,0,0,0,86.44,47.27"/><path class="cls-1" d="M8.37,68.56l-1.2.62c.47-.59,0-1-.21-1.52a.3.3,0,0,0-.43-.2,11.45,11.45,0,0,0-1,.6.17.17,0,0,0,0,.25c.4.65.5,1.6,1.67,1.55-.9.39-1,.36-1.36-.34S5,68,4.66,67.15c.35.44.69.28,1.06.08.59-.32,1.2-.62,1.8-.93.23-.12.49-.22.42-.55a.57.57,0,0,0-.62-.43L4.09,65.2c-.14,0-.28,0-.53-.08l2-2.09a9,9,0,0,0,.63-.68.69.69,0,0,0,0-.86c-.2-.3-.45-.15-.69-.07l-2.08.68c-.33.11-.65.22-.49.73a4.71,4.71,0,0,1-.56-1.65c.24.53.59.42,1,.28.67-.23,1.36-.43,2-.66.29-.1.55-.24.41-.63s-.28-.63-.74-.5a24.26,24.26,0,0,1-3,.65l2.17-3-.06-.12c-.75.19-1.49.38-2.24.59-.27.08-.2.35-.34.58l-.34-1.23c.3.43.67.35,1.06.24q1-.28,2-.51a.56.56,0,0,0,.5-.71c-.08-.4-.38-.43-.72-.36s-1,.16-1.46.22a1.44,1.44,0,0,1-1.53-.49,2,2,0,0,1-.23-1.89c.18-.52.66-.66,1.13-.75s1-.15,1.46-.23.78-.09.79-.66a5,5,0,0,1,.24,1.68c-.15-.56-.51-.47-.88-.4-.54.1-1.09.15-1.62.27a1,1,0,0,0-.89,1.21,1,1,0,0,0,1.22,1c.62,0,1.23-.17,1.84-.26a.64.64,0,0,0,.56-.62c.15.72.31,1.43.46,2.16,0,.2-.14.33-.24.47-.54.76-1.09,1.51-1.74,2.4l2.08-.55c.28-.08.21-.35.28-.68.29.65.36,1.26.59,1.81s.44,1.31.66,2a.5.5,0,0,1-.24.66,9.79,9.79,0,0,0-1.74,1.82c1,0,1.92.36,2.9,0l1.51,3c.33.66.29.73-.49.92a1.83,1.83,0,0,0-.33-1.95.19.19,0,0,0-.24,0l-.24.13c-.25.16-.72.18-.73.48a2,2,0,0,0,.51,1.07c.15.22.39.1.71.17"/><path class="cls-1" d="M88.53,28.21c.69-.14,1.28-.25,1.86-.38a.38.38,0,0,1,.51.23c.65,1.3.66,1.29-.67,1.92-.74.35-1.5.67-2.23,1.05-.33.17-.49.13-.59-.21a1.58,1.58,0,0,0-.17-.34c-.18-.29-.15-.46.2-.6a11.56,11.56,0,0,0,1.89-1c-.75.13-1.51.23-2.25.41-.41.1-.44-.16-.58-.38s-.07-.41.15-.59a22.06,22.06,0,0,0,1.79-1.6c-.68.33-1.37.63-2,1-.39.22-.47,0-.58-.27s-.34-.47.13-.67c1.07-.46,2.12-1,3.17-1.49.3-.14.45-.12.57.21s.49.79.45,1.15-.59.55-.87.85a7,7,0,0,0-.76.7"/><path class="cls-1" d="M15.62,13.32a2.31,2.31,0,0,1,2,1.37,1.86,1.86,0,0,1-.34,2.23c-.35.39-.75.75-1.11,1.14-.17.19-.29.15-.44,0s-.51-.52-.78-.77-.21-.35-.52-.16-.51-.29-.45-.4c.24-.41-.12-.52-.29-.69-.8-.79-.81-.79,0-1.6a8.63,8.63,0,0,1,.82-.73,1.57,1.57,0,0,1,1.07-.36m1,2.58c0-.71-1-1.55-1.57-1.26-.15.08-.5.15-.28.45s.3.55.62.17.3,0,.43.1.28.21.08.39-.31.25-.07.42.23.4.46.31a.59.59,0,0,0,.34-.58"/><path class="cls-1" d="M3.39,33.74a1.21,1.21,0,0,1,1.19.81c.07.23.2.22.37.2a11,11,0,0,0,1.19-.17c.5-.12.53.07.38.46a1.93,1.93,0,0,0-.13.47c0,.3-.16.45-.49.45s-.69.08-1,.11-.36.1-.37.32.19.18.32.22l.37.1c.84.21.82.21.64,1-.09.38-.21.49-.61.38-1.09-.32-2.18-.59-3.28-.86-.3-.07-.44-.15-.32-.5.25-.74.33-1.53.65-2.25a1.14,1.14,0,0,1,1.14-.77m.33,1.88c0-.32-.15-.53-.42-.49-.45.06-.44.49-.48.81s.35.3.52.3c.44,0,.21-.45.37-.61"/><path class="cls-1" d="M74.23,8.27a7.79,7.79,0,0,1-.62.89c-.35.38,0,.46.21.64s.43.23.58-.09a1.46,1.46,0,0,1,.16-.22c.53-.74.52-.73,1.26-.23.3.2.33.33.11.63-.69.95-1.34,1.91-2,2.88-.15.23-.25.29-.51.12-.79-.52-.8-.51-.36-1.29a2.28,2.28,0,0,1,.22-.36c.22-.27.08-.38-.15-.55s-.43-.21-.62,0c-.06.07-.08.16-.14.23-.72,1-.34.9-1.39.23-.21-.14-.26-.25-.11-.47q1.06-1.5,2.1-3c.15-.23.28-.23.48-.08s.42.29.63.44.16.1.14.22"/><path class="cls-1" d="M84.83,20.59a8.06,8.06,0,0,0,.76-.57c.34-.32.56-.33.83.11.41.66.45.64-.15,1.09-.84.62-1.68,1.23-2.51,1.86-.26.2-.41.23-.63-.09-.52-.75-.54-.73.19-1.27l.22-.17a.55.55,0,0,0-.08-1,.19.19,0,0,0-.24,0l-.4.29c-.86.64-.85.63-1.42-.27-.13-.21-.1-.3.08-.44,1-.71,2-1.43,3-2.17.21-.16.31-.14.47.06.64.79.65.78-.17,1.4-.53.4-.54.52-.07,1l.16.15"/><path class="cls-1" d="M48,2.21c0-.62.08-1.24.09-1.86,0-.3.12-.36.4-.34,1,0,.95,0,.92,1,0,.28-.15.62.38.63s.63-.08.58-.53a.66.66,0,0,1,0-.11c.05-1,.05-1,1.08-.89.24,0,.29.12.28.35q-.09,1.81-.16,3.62c0,.29-.12.36-.4.35-1,0-1,0-.92-1a1.77,1.77,0,0,1,0-.27c.1-.45-.16-.48-.51-.51s-.51.14-.47.49a1.93,1.93,0,0,1,0,.27c0,.94-.26,1.1-1.18.89-.24-.05-.22-.2-.21-.37,0-.58.07-1.17.1-1.75h0"/><path class="cls-1" d="M7.06,29.71a2.39,2.39,0,0,1-2-1.35,2,2,0,0,1,.36-2.24,1.82,1.82,0,0,1,1-.58c.18,0,.26-.13.19-.3s-.16-.21-.33-.08-.39,0-.52-.15,0-.31.1-.44.32,0,.46,0c.32.14.66.28.62.73,0,.27.19.15.29.17A2.76,2.76,0,0,1,9,26.61a1.89,1.89,0,0,1,.06,2.07,2,2,0,0,1-2,1m.59-1.27a.58.58,0,0,0,.51-.28.49.49,0,0,0-.08-.6,2.41,2.41,0,0,0-1.53-.74.46.46,0,0,0-.5.26.51.51,0,0,0,.09.61,2.77,2.77,0,0,0,1.52.76"/><path class="cls-1" d="M91.39,35.37c.52-.16,1-.3,1.55-.5s.44.14.47.37.42.57-.15.72c-1.09.29-2.17.63-3.27.93-.18,0-.46.31-.56,0s-.46-.71-.08-1.11.92-1,1.38-1.49c.08-.09.2-.16.2-.34a11.22,11.22,0,0,0-1.84.54c-.56.19-.42-.3-.53-.52s-.18-.45.22-.56c1.15-.3,2.28-.64,3.42-1,.31-.1.4,0,.5.28a1.11,1.11,0,0,1-.3,1.44,9.92,9.92,0,0,0-1.07,1.16l.06.08"/><path class="cls-1" d="M91.24,38.62a6.51,6.51,0,0,0-.88.17c-.46.15-.59,0-.65-.46-.1-.79-.13-.79.67-.94,1-.18,1.94-.34,2.9-.55.4-.08.63,0,.63.44a1.93,1.93,0,0,0,.09.48c.07.26,0,.37-.29.39a5.76,5.76,0,0,0-.65.11c-.58.11-.63.22-.44.8.06.19.13.28.35.21a3.05,3.05,0,0,1,.43-.08c.81-.16.79-.16,1,.65.11.43,0,.56-.43.63-1.08.16-2.16.38-3.23.61-.39.08-.59,0-.58-.41a1.11,1.11,0,0,0-.07-.37c-.13-.37,0-.53.39-.55a4.19,4.19,0,0,0,.59-.11c.6-.12.68-.26.46-.83-.08-.2-.08-.2-.29-.18"/><path class="cls-1" d="M83.05,73a1.17,1.17,0,0,1,1.17-1,14.72,14.72,0,0,0,2.61-.38c-.58-.37-1.15-.76-1.74-1.12-.23-.14-.33.18-.54.23-.07-.2.1-.3.17-.41a14.34,14.34,0,0,0,1-1.75c.13-.28.16-.36.33,0s.71.48,1.08.7c.13.08.2,0,.25-.13s.2-.35.29-.53c.54-1.08.66-.78-.44-1.4-.32-.18-.33-.16-.83.13l.77-1.47c-.17.58.24.73.6.92l1.69.91c.35.19.68.38,1.05,0l-.8,1.53A1.24,1.24,0,0,0,88.6,68c-.66,0-.57.85-.93,1.24-.16.18-.06.3.13.42.86.55,1.07.59,1.47.21a3.61,3.61,0,0,1-.83,1.59c.25-.61-.06-.8-.42-1q-1-.49-1.93-1c-.33-.19-.54-.09-.73.21a.46.46,0,0,0,.15.73,26.57,26.57,0,0,1,2.55,1.83l-3.93.46c.82.52,1.5,1,2.2,1.4.21.13.33-.16.59-.26A4.32,4.32,0,0,1,86.13,75c.26-.54-.13-.73-.45-.94s-1-.6-1.41-.95A.94.94,0,0,0,83,73Z"/><path class="cls-1" d="M25.86,5.31c.2,0,.23.11.29.21.61,1.06,1.21,2.13,1.82,3.18.13.23.08.33-.14.46-.87.54-.84.53-1.38-.34-.13-.21-.08-.73-.64-.48s-.59.42-.25.83a1.34,1.34,0,0,1,.11.19c.44.77.43.75-.32,1.21-.31.19-.46.19-.65-.16-.54-1-1.12-2-1.7-3-.16-.28-.16-.41.15-.58.83-.45.83-.48,1.28.37.2.38.37.64.83.29.23-.18.34-.3.14-.55a1.68,1.68,0,0,1-.22-.38c-.09-.23-.43-.48-.27-.66a3.79,3.79,0,0,1,.93-.6"/><path class="cls-1" d="M44.71,2.11c0,.63.06,1.26.14,1.89.05.41-.15.48-.47.44s-.64.22-.65-.35c0-1.17-.1-2.33-.18-3.5,0-.33.07-.41.4-.46a1.11,1.11,0,0,1,1.32.64,5.24,5.24,0,0,0,1,1.26c0-.52,0-1-.11-1.55S46.4,0,46.7,0s.57-.11.57.38c0,1.11.09,2.22.13,3.34,0,.19.15.52-.14.55s-.79.27-1.09-.2c-.43-.67-.89-1.33-1.33-2l-.12,0"/><path class="cls-1" d="M8.57,24.2c.71.42,1.27.77,1.85,1.08.4.21.16.42,0,.6s-.13.66-.59.36c-.9-.57-1.8-1.12-2.7-1.67-.71-.43-.71-.43-.25-1.17a.6.6,0,0,1,.61-.34,11.45,11.45,0,0,0,2-.08c-.46-.27-.92-.55-1.39-.8-.27-.14-.32-.26-.15-.54.39-.63.38-.64,1-.24.85.53,1.72,1,2.56,1.58.16.1.53.16.39.41s-.21.82-.77.81L9,24.18l-.42,0"/><path class="cls-1" d="M12.72,20.08c-.32,0-.27.6-.71.32s-.55-.38-.17-.89c.81-1.09.81-1.09,1.9-.27.17.13.35.26.52.4s.32.13.25.3-.18.44-.39.41c-.37-.06-.3.17-.34.37a1.83,1.83,0,0,1-2.36,1.43,2.81,2.81,0,0,1-1.65-1.28,1.92,1.92,0,0,1,.28-2.28A1.64,1.64,0,0,1,12,18c.29.1.34.21.16.46s-.35.87-1,.67c-.32-.09-.55.37-.37.71a2.19,2.19,0,0,0,1.38,1.08.54.54,0,0,0,.62-.24.49.49,0,0,0,0-.62"/><path class="cls-1" d="M29.5,8.27a2.38,2.38,0,0,1-2.2-2.42,2,2,0,0,1,2-2,2.38,2.38,0,0,1,2.19,2.49,2,2,0,0,1-2,2m.73-1.67a2.85,2.85,0,0,0-.66-1.49A.49.49,0,0,0,29,4.92a.53.53,0,0,0-.35.57A2.45,2.45,0,0,0,29.32,7a.46.46,0,0,0,.59.12.59.59,0,0,0,.31-.52"/><path class="cls-1" d="M79.13,12.71a2.57,2.57,0,0,1-2.34,2.46,2.11,2.11,0,0,1-2-2,2.55,2.55,0,0,1,2.32-2.43,2.06,2.06,0,0,1,2,2m-1.23-.2a.49.49,0,0,0-.7-.53A2.2,2.2,0,0,0,76,13.34a.49.49,0,0,0,.59.63,2.4,2.4,0,0,0,1.29-1.46"/><path class="cls-1" d="M7.59,31.63A2.92,2.92,0,0,1,7,33.43a1.28,1.28,0,0,1-1.54.39c-.83-.28-1.65-.6-2.47-.89-.25-.09-.27-.2-.19-.45.32-.94.31-.95,1.22-.61l1.7.62a.52.52,0,0,0,.78-.34c.14-.4-.08-.59-.4-.71A21.27,21.27,0,0,0,4,30.68c-.62-.17-.29-.52-.25-.82s.3-.32.57-.21c.11,0,.25.14.35,0a.29.29,0,0,0,0-.36c-.12-.15-.21-.05-.35,0a.47.47,0,0,1-.59-.09c-.15-.19.1-.27.15-.42.09-.3.3-.1.44-.06.44.15.82.35.69.93-.06.25.18.24.31.3.49.2,1,.36,1.49.56a1.18,1.18,0,0,1,.86,1.09"/><path class="cls-1" d="M40.65.57a1.85,1.85,0,0,1-.16.4,1.68,1.68,0,0,0,.31,2.46,10.07,10.07,0,0,1,1,1.26c-.57,0-1.08.43-1.51.11a5.46,5.46,0,0,1-.94-1.25,1,1,0,0,0-.22,1.16c.1.33.05.52-.34.54a2.43,2.43,0,0,0-.54.1c-.19,0-.26,0-.29-.2-.23-1.24-.46-2.48-.71-3.71,0-.23,0-.3.23-.33A2.35,2.35,0,0,0,37.93,1c.41-.16.5.07.55.4a3.49,3.49,0,0,0,.27,1,5.21,5.21,0,0,0,.38-.91c.18-.83.74-1,1.51-1"/><path class="cls-1" d="M76.39,80.41c-.34.23-.33.47-.08.77.47.56.9,1.15,1.35,1.72.23.29.44.64.93.28a2.39,2.39,0,0,1-1.12.85c0-.58-.46-.88-.73-1.27,0,0,0,0,0,0-.64-.06-.88.55-1.34.81-.28.16-.12.4,0,.55.31.31.43.86,1.07.87l-1.12.91-.19,0c.56-.4.27-.7,0-1L73.89,83.2a1.36,1.36,0,0,0-.31-.3c-.19-.12-.37,0-.5.11s0,.24.11.34.26.34.47.63c-.55-.2-.93-.55-1.42-.37a1.38,1.38,0,0,0-.94.92,2.34,2.34,0,0,0,1.31,2.42c.69.23,1.39-.32,2-1.59.14.24,0,.45,0,.63a2.06,2.06,0,0,1-2,1.37,2.14,2.14,0,0,1-1.78-1.66,1.79,1.79,0,0,1,1-2.09A10.87,10.87,0,0,0,74,82.12l.37-.28c-.14.54.12,1.43.56,1.52s.85-.56,1.31-.81c.22-.12.19-.31,0-.45-.35-.3-.42-1.09-1.23-.73.5-.3.73-.94,1.41-1Z"/><path class="cls-1" d="M60.55,2.83c-.45-.11-.84-.22-1.23-.3-.19,0-.43-.27-.56.14s.24.35.43.43a3,3,0,0,0,.58.15c.31.06.52.12.4.56s-.3.5-.67.37S59,4.08,58.82,4s-.39,0-.46.26.06.38.32.43.67.17,1,.25A.6.6,0,0,1,60,6c-.11.14-.23.06-.35,0-.85-.21-1.69-.45-2.54-.64-.28-.07-.29-.19-.23-.42q.46-1.75.9-3.5c.05-.22.09-.36.39-.28q1.26.36,2.54.65c.33.08.31.24.21.47s0,.6-.36.56"/><path class="cls-1" d="M68.06,7.52a2,2,0,0,1-1-.35c-.29-.16-.43-.08-.53.2a3,3,0,0,1-.13.3c-.37.77-.36.75-1.15.38-.32-.15-.42-.28-.24-.63.52-1,1-2.05,1.5-3.09.14-.3.26-.37.56-.2.62.34,1.3.58,1.89,1a1.28,1.28,0,0,1,.5,1.49,1.32,1.32,0,0,1-1.36.94m0-1.55a.61.61,0,0,0-.6-.46c-.26,0-.33.35-.35.54s.32.3.52.34.37-.16.43-.41"/><path class="cls-1" d="M33.48,6.67a1.5,1.5,0,0,1-1.15-.47A2.87,2.87,0,0,1,31.5,4,1.82,1.82,0,0,1,33,2.26,1.64,1.64,0,0,1,34.9,3c.17.27.2.45-.17.54a2.15,2.15,0,0,0-.46.18c-.23.12-.4.11-.51-.17a.45.45,0,0,0-.56-.32.53.53,0,0,0-.39.59,2.78,2.78,0,0,0,.47,1.44.54.54,0,0,0,.6.28c.28-.07.35-.28.37-.54s.65-.66,1-.56.23.51.19.74a1.74,1.74,0,0,1-1.94,1.45"/><path class="cls-1" d="M81.15,19.49a2,2,0,0,1-1.78-2.54,2.75,2.75,0,0,1,2-1.72,1.87,1.87,0,0,1,2,1,1.69,1.69,0,0,1-.14,1.9c-.18.23-.31.27-.5,0a2.68,2.68,0,0,0-.38-.39c-.21-.17-.25-.32,0-.53a.44.44,0,0,0,.06-.64.53.53,0,0,0-.7-.11,2.84,2.84,0,0,0-1.14,1,.5.5,0,0,0,0,.65.52.52,0,0,0,.65.13c.26-.09,1,.56,1,.81,0,.07-.12.13-.19.17a1.8,1.8,0,0,1-.82.25"/><path class="cls-1" d="M19.44,14.84a1.52,1.52,0,0,1-.7.64c-.24.12-.25-.22-.32-.38C18,14,17.51,12.91,17,11.83a.48.48,0,0,1,.18-.68c.76-.61.75-.62,1.58-.09l2.68,1.74c.19.13.32.22,0,.4a3.87,3.87,0,0,0-.54.46c-.17.16-.34.22-.52,0-.38-.4-.66-.16-1,.09s-.25.54-.11.84l.11.22m-1.14-2.61,0,0h0l.06,0c0,.29.19.49.27.74,0,.08.07.2.18.13a1,1,0,0,0,.32-.28c.06-.09-.07-.15-.14-.19l-.64-.39"/><path class="cls-1" d="M19.8,80.91a5.77,5.77,0,0,0-2.34.44c-.5.13-.77.64-1.07,1-.16.22.17.33.17.65l-1.38-1.23a1.44,1.44,0,0,0,1.58-1c.08-.58.14-1.16.21-1.74,0-.26.05-.57-.2-.7s-.34.23-.53.35l-.28.17c.38-.51.46-.88.05-1.24-.16-.14-.27-.22-.45,0l-1.92,1.79c-.24.23-.25.47.06.73l-.17.05-1.15-1.21c.49.33.78,0,1.09-.28.49-.47,1-.91,1.48-1.38.15-.14.48-.27.22-.56s-.43-.53-.83-.34c-.11,0-.18.2-.39.1l.57-.51c.11-.1.2-.13.32,0a38.64,38.64,0,0,0,3.4,3.45c-.65-.16-.65-.16-.71.41-.13,1.24-.13,1.23,1.08.91.33-.09.64-.14.25-.63a3.31,3.31,0,0,1,1,.8"/><path class="cls-1" d="M95.16,46.74A2.46,2.46,0,0,1,95,47c-.53.53-1.07,1-1.58,1.59-.2.21-.31.16-.48,0-.52-.53-1-1.07-1.58-1.58-.19-.18-.2-.3,0-.49.55-.53,1.08-1.08,1.62-1.62.13-.13.23-.21.4,0,.56.58,1.13,1.14,1.7,1.71a1.39,1.39,0,0,1,.13.19"/><path class="cls-1" d="M2,44.71c.08.07.17.13.24.2.53.53,1.05,1.06,1.59,1.58.18.17.23.29,0,.48-.55.53-1.09,1.07-1.63,1.62-.15.16-.25.21-.44,0C1.26,48,.7,47.5.14,47c-.11-.11-.21-.2-.06-.35l1.78-1.78A1.23,1.23,0,0,1,2,44.71"/><path class="cls-1" d="M92.55,54.33c-.39-.36-.72-.64-1-.95s-.39-.18-.54.13a3.05,3.05,0,0,1,.11-1.14c1,1.53,2.56,2.55,3.43,1.82a2.77,2.77,0,0,1-.2,1.43A1.32,1.32,0,0,0,92.65,55c-.53.24-1,.52-1.57.77-.25.12-.5.28-.48.54s.36.15.54.24.15,0,.15.12-.27,0-.4,0c-.36.11-.44.42-.49.72s.25.3.44.35l2.12.54c.27.07.56.24.8-.15a3.92,3.92,0,0,1-.35,1.48c.05-.54-.3-.64-.69-.74-.66-.15-1.31-.33-2-.48-.19,0-.44-.25-.59,0a.83.83,0,0,0,0,.84c.06.1.19.17.13.32-.63-.16-.63-.16-.5-.7.17-.71.33-1.42.54-2.12s.25-1.43.45-2.2c.07.55.32.49.65.31s.71-.36,1.15-.57"/><path class="cls-1" d="M83.05,79l-3.1-1-.07.09,1.79,1.55c.22.19.39-.1.68-.07l-.85,1c.17-.52-.18-.76-.48-1l-1.39-1.24c-.43-.39-.43-.39-.93-.2.45-.83.57-.88,1.45-.62l2.06.62c.1-.32-.1-.54-.2-.78-.18-.44-.38-.87-.57-1.3-.36-.83-.33-.93.57-1.58-.36.5-.12.74.17,1,.51.44,1,.9,1.51,1.35.27.24.53.56,1,.12a2.6,2.6,0,0,1-1,1c-.16-.9-1.16-1.17-1.85-1.74L83.05,79"/><path class="cls-1" d="M5.46,39.55c-.06,1-.09,1-1.07.89-.63-.1-1.26-.2-1.88-.33-.33-.07-.53,0-.53.36,0,.57-.39.31-.66.3s-.45-.1-.37-.47c.16-.73.28-1.47.37-2.21.06-.5.36-.31.63-.29s.56.08.4.48,0,.47.37.52c.81.11,1.62.28,2.43.4.24,0,.39.09.32.35"/><path class="cls-1" d="M65.72,4.67l-.13,0c-.68-.46-.74.12-.9.54-.24.63-.5,1.25-.73,1.89-.1.29-.2.4-.54.26-.89-.37-.89-.35-.54-1.23.24-.59.45-1.2.7-1.78.13-.29.13-.47-.23-.54s-.38-.3-.24-.63.21-.54.64-.34c.68.31,1.39.55,2.09.82.14.06.34.08.22.33a2.46,2.46,0,0,1-.34.73"/><path class="cls-1" d="M54.95,1.84c0-.26-.15-.25-.31-.26-.6,0-.41-.41-.37-.77s.38-.28.6-.24c.69.1,1.36.26,2.05.34.37,0,.42.21.32.5s0,.68-.46.52-.52.08-.58.44c-.11.76-.28,1.51-.37,2.27,0,.37-.19.43-.54.38-.9-.15-.9-.14-.74-1,.13-.72.26-1.44.38-2.16"/><path class="cls-1" d="M65.06,87.35c-.41.33-.3.67-.15,1.05q.37.91.7,1.84c.13.38.28.68.79.66l-1.65.63a1.51,1.51,0,0,0,0-1.8s-.1-.07-.14-.06c-.49.18-1,.36-1.48.56-.13.05-.1.17-.06.28.12.3.24.61.34.92s.4.24.65.27a3.54,3.54,0,0,1-1.56.62c.51-.28.33-.65.18-1s-.38-1-.56-1.48-.27-.87-.83-1l1.47-.54c-.31.45-.33,1.36.07,1.6s1-.26,1.5-.36c.23,0,.26-.2.2-.41-.23-.86-.38-1-1-1.12l1.54-.6"/><path class="cls-1" d="M8.6,74.07c-.4-.42-.63-.75-.42-1.27s.31-.93.49-1.39A.37.37,0,0,0,8.59,71c-.13-.14-.27-.06-.39,0a4,4,0,0,1-.37.23c-.28.13-.49.53-.75.45s-.33-.44-.49-.68a9.28,9.28,0,0,0,2.94-1.6c.28-.16,0-.43.12-.75.45.75.88,1.42,1.24,2.12a.83.83,0,0,1-.22,1.09A.87.87,0,0,1,9.52,72c-.26-.19-.36-.14-.45.15a6.35,6.35,0,0,0-.47,2m1.92-3.32c-.09-.29-.13-.68-.54-.8a2.56,2.56,0,0,0-1.19.85,1.29,1.29,0,0,0,1,.79.84.84,0,0,0,.76-.83"/><path class="cls-1" d="M42.11,4.7c-.2.06-.28-.06-.31-.31q-.2-1.8-.43-3.59c0-.25,0-.35.3-.4,1-.17,1-.18,1.13.78s.24,2,.38,3c0,.25,0,.37-.29.38s-.47.06-.78.1"/><path class="cls-1" d="M88.34,33c-.16,0-.17-.1-.22-.19-.49-.95-.46-1,.54-1.39s1.82-.67,2.72-1c.29-.11.43-.1.56.24.34.92.35.91-.56,1.25l-2.67,1-.36.13"/><path class="cls-1" d="M87.75,21.89c-.19.12,0,.25,0,.31.35.41.13.59-.24.81-.94.56-1.86,1.15-2.77,1.75-.28.19-.42.14-.59-.14-.5-.8-.52-.79.27-1.3s1.61-1,2.4-1.52c.32-.21.56-.34.75.11,0,.07.12.07.16,0Z"/><path class="cls-1" d="M20.44,8.67a2.17,2.17,0,0,1,.19.2c.74,1,1.48,2,2.22,3,.14.18.08.26-.07.39C22,13,22,13,21.31,12.14s-1.12-1.57-1.71-2.33c-.24-.3-.18-.45.11-.63s.47-.33.73-.52"/><path class="cls-1" d="M36.31,93.34a2,2,0,1,1,1.94-2.06,1.93,1.93,0,0,1-1.94,2.06M37.61,91a1.3,1.3,0,0,0-.82-1.33,1.05,1.05,0,0,0-1.31.39A2.31,2.31,0,0,0,35,92.29a1.13,1.13,0,0,0,1.86.48A2.56,2.56,0,0,0,37.61,91"/><path class="cls-1" d="M30.1,90.22c-.4.86-.54.92-1.24.6s-1.57-.72-2.37-1.15c.53.14.68-.19.84-.55q.4-.93.84-1.84c.17-.35.27-.67-.1-1,.92.42,1.86.79,2.74,1.28.37.2-.12.51-.15.81,0-.38-.11-.71-.51-.86s-.63-.28-.95-.42a.22.22,0,0,0-.31.13l-.07.15c-.44.87-.22,1.27.76,1.42.27,0,.38-.16.63-.35a6.32,6.32,0,0,1-.54,1.33,1.5,1.5,0,0,0-1.22-1.19.19.19,0,0,0-.22.11q-.26.54-.49,1.1a.19.19,0,0,0,.12.27c.71.27,1.37,1,2.25.17"/><path class="cls-1" d="M21.38,86.44a2,2,0,0,1,0-4,2,2,0,0,1,2,2,2,2,0,0,1-2,2.05M22.87,84A1.11,1.11,0,0,0,21.7,82.8a2.18,2.18,0,0,0-1.78,2.45,1.32,1.32,0,0,0,1.46.82A2.8,2.8,0,0,0,22.87,84"/><path class="cls-1" d="M67.66,90.15A2.09,2.09,0,0,1,65.79,88a2,2,0,0,1,2.11-1.9,2.06,2.06,0,0,1,1.89,2.15,2,2,0,0,1-2.13,1.89m-1.29-2.39a2.52,2.52,0,0,0,.91,1.76,1.08,1.08,0,0,0,1.32.15,1.14,1.14,0,0,0,.62-1.18,2.54,2.54,0,0,0-.82-1.68A1.16,1.16,0,0,0,67,86.56a1,1,0,0,0-.67,1.21"/><path class="cls-1" d="M9.71,73.72a6.93,6.93,0,0,0-.27.81.85.85,0,0,0,.31.88.57.57,0,0,0,.66.07.81.81,0,0,0,.37-.85c0-.33-.05-.65-.06-1a1,1,0,0,1,.78-1.15,1.18,1.18,0,0,1,1.2.76c.1.22.07.54.53.54-.34.29-.51.61-1,.68a1.46,1.46,0,0,0,.32-.81c0-.4-.2-.74-.64-.75s-.57.33-.56.71.08.8.09,1.2A1.07,1.07,0,0,1,10.73,76a1.16,1.16,0,0,1-1.28-.51c-.19-.28-.2-.67-.56-.85-.12-.06,0-.15,0-.22l.72-.72.06.05"/><path class="cls-1" d="M59.9,90.26c-.33-.14-.5-.44-.83-.55a.67.67,0,0,0-.9.28c-.19.39,0,.67.41.81s.77.23,1.14.36a1.07,1.07,0,0,1,.81,1.15c-.06.55-.43.8-.92,1s-.73-.08-1,.21c-.09.08-.14-.07-.18-.14a3.69,3.69,0,0,1-.32-.94c.21.17.41.36.64.52a.83.83,0,0,0,1,.06.59.59,0,0,0,.3-.6c0-.39-.35-.54-.66-.65s-.67-.19-1-.32a1,1,0,0,1-.71-1.1,1.13,1.13,0,0,1,1-.88c.24,0,.5.11.72-.12s.15,0,.19.09l.31.86"/><path class="cls-1" d="M23.55,88c-.5,0-.81-.42-1.26-.64.6.19.77-.23,1-.61.31-.56.63-1.11,1-1.65.22-.34.32-.62-.1-.87.17-.19.26,0,.35,0l1.84,1.09c.68.41.69.43.13,1.09A1.52,1.52,0,0,0,25.3,85a.28.28,0,0,0-.33.11,1.51,1.51,0,0,0-.23.37c-.08.24-.5.42-.17.74a.91.91,0,0,0,1.31.13,3.83,3.83,0,0,1-.69,1.18c0-.3.06-.55-.22-.76-.67-.49-.7-.51-1.12.22-.17.29-.43.56-.31,1Z"/><path class="cls-1" d="M90.1,61.82c-1.14.26-1.69.84-1.53,1.68a2.08,2.08,0,0,0,2.29,1.35c1-.2,1.27-.86.93-2.41.24.08.27.29.33.46a2,2,0,0,1-3.2,2.1,1.94,1.94,0,0,1-.47-2.33c.17-.36.64-.58.51-1.09,0-.07.1-.08.17-.06l1,.3"/><path class="cls-1" d="M34.28,90.1c-.45-1.34-1-1.76-1.82-1.48A2.07,2.07,0,0,0,31.33,91c.28.9,1,1.13,2.35.73.1.13,0,.15-.09.19A2.07,2.07,0,0,1,31,91.53a2,2,0,0,1,.07-2.62,2,2,0,0,1,2.44-.43c.3.16.5.55.94.42.11,0,.08.13.06.21-.08.31-.17.61-.28,1"/><path class="cls-1" d="M83,73c-.24.43-.1.72.3,1s1,.77,1.52,1.15c.31.24.61.58,1,0l0,.18-1,1.31c.21-.56-.19-.77-.53-1-.53-.39-1.05-.79-1.56-1.2-.29-.23-.56-.34-.89,0A4,4,0,0,1,83.05,73Z"/><path class="cls-1" d="M11.6,78l-1-1.16a1.14,1.14,0,0,0,1.09-.41c.47-.41.95-.8,1.44-1.18.3-.24.53-.47.33-.93l1.07,1.27c-.49-.32-.8,0-1.13.25q-.72.63-1.48,1.22c-.31.25-.58.48-.14.94Z"/><path class="cls-1" d="M76.4,80.42c-.16-.19,0-.3.12-.4.28-.26.57-.5,1-.85-.1.54.2.77.44,1,.43.47.86.94,1.29,1.42.24.27.47.48.86.13l0,.15L78.92,83c.36-.57-.11-.84-.4-1.17L77.2,80.35c-.3-.33-.57-.32-.81.06Z"/><path class="cls-1" d="M93,61.23l-.37,1.14c0-.51-.33-.62-.69-.71a12.54,12.54,0,0,0-2.57-.7c-.21,0-.27-.13-.2-.33l.22-.61A13.78,13.78,0,0,0,93,61.23"/><path class="cls-1" d="M68.65,9.75c-.28,0-1-.57-1-.66.21-.27.18-.84.6-.78s.85.19.86.59a1.17,1.17,0,0,1-.5.85"/><path class="cls-1" d="M60.27.95c.39-.21.55-1,1.28-.48-.35.24-.6.6-1.07.6-.07,0-.14,0-.19,0-.23.32-.25.33-.47,0s-.28-.15-.43,0-.33.18-.45.06.09-.27.17-.37c.49-.6.84-.53,1.15.2"/><path class="cls-1" d="M79,11.68c0-.1-.12-.18-.12-.26,0-.46-.14-.7-.65-.57-.05,0-.17-.09-.19-.16s.08-.15.16-.18a4.18,4.18,0,0,1,.51-.19.49.49,0,0,1,.58.59c0,.12-.1.23-.14.34s.07.22-.15.44"/><path class="cls-1" d="M79.66,11.43c-.42-.41-.16-.89-.27-1.35.65.38.65.38.27,1.35"/><path class="cls-1" d="M3.88,26.71c0-.59.39-.68.83-.64.11,0,.28-.1.32.09s-.11.26-.25.3l-.89.24"/><path class="cls-1" d="M87.76,21.9c0-.38.29-.28.51-.33.44-.1.62.14.77.58l-1.29-.25h0"/><path class="cls-1" d="M20.91,14.85c-.16.22-.33.42-.55.43S20,15,20,14.88s.27-.42.46-.45.28.27.46.42"/><path class="cls-1" d="M30.95,8.59a.54.54,0,0,1-.52.34c-.27,0-.33-.29-.33-.46s.3-.3.49-.32.23.3.36.45"/><path class="cls-1" d="M23.54,88l.19.15s0,0,0,0-.09-.15-.19-.12h0"/><path class="cls-2" d="M18.31,12.24l.64.39c.07,0,.2.1.14.19a1,1,0,0,1-.32.28c-.11.07-.16-.05-.18-.13-.08-.25-.3-.45-.27-.74Z"/><path class="cls-2" d="M18.32,12.23l-.06,0h0l0,0Z"/><path class="cls-3" d="M40.69,62.38c-4.81-3.55-10.34-4.68-16.16-4.83a29.59,29.59,0,0,0-5.3.33c-.32,0-.49,0-.43-.4q1.48-10.86,2.93-21.73c.49-3.6,1-7.2,1.45-10.81.06-.5.27-.66.73-.72a37.92,37.92,0,0,1,6.68-.2c.64,0,1.28.1,1.92.14.27,0,.37.08.34.39q-.79,7.58-1.56,15.16-.19,1.83-.37,3.65c-.31,3-.6,6-.92,9,0,.38.05.47.41.5,1.28.1,1.26.11,1.39-1.18q.69-6.93,1.4-13.85l1.14-11.29c.06-.6.13-1.2.19-1.8,0-.21,0-.35.32-.3a12.42,12.42,0,0,1,6.63,3.26c0,.17.07.25.24.22h0a.67.67,0,0,0,.32.73,1.72,1.72,0,0,1,.76,1.42q0,16.77,0,33.53c0,.17.08.36-.1.51-.2-.22-.47-.37-.57-.68s-.22-.14-.36-.08v0a1.15,1.15,0,0,0-1-.93"/><path class="cls-3" d="M62.52,25.85l-.06-.45a.75.75,0,0,0,.05-.53.59.59,0,0,1,.52-.77c.8-.13,1.6-.25,2.41-.32,1-.08,2,.09,3-.08l.22,0c0,.13,0,.27.2.27a13.28,13.28,0,0,0,2.33.23c.44,0,.59.22.65.62q1.26,8.76,2.55,17.52,1.06,7.29,2.14,14.59c.09.63.1.62-.54.55a47.52,47.52,0,0,0-9.69,0c-.51.05-.72,0-.77-.6-.31-3.53-.68-7.06-1-10.59-.19-1.89-.38-3.78-.55-5.68,0-.32-.14-.33-.42-.27-1.2.25-1.22.24-1.12,1.43.43,5.12.86,10.24,1.32,15.35,0,.55-.15.65-.62.72a41.89,41.89,0,0,0-13.73,4.3A17.23,17.23,0,0,0,46,64.45c-.06.06-.11.15-.27.1a20.92,20.92,0,0,1,1.21-2.61,29.5,29.5,0,0,1,10.19-11,1,1,0,0,0,.5-1c0-7.88,0-15.76,0-23.64a.9.9,0,0,1,.54-.94,11.83,11.83,0,0,1,2.39-1.08c.37-.1.43,0,.46.34q.4,4.86.81,9.73c.07.78.15,1.57.2,2.35,0,.29.09.37.4.31,1.22-.23,1.2-.21,1.07-1.4-.32-3.13-.62-6.26-.92-9.38a2.28,2.28,0,0,1,0-.27s0-.06,0-.09"/><path class="cls-3" d="M45.84,26.16a20.3,20.3,0,0,1,4.66-5,25.54,25.54,0,0,1,5-3c.34-.16.49-.19.49.29,0,2.34,0,4.67.07,7a1.23,1.23,0,0,1-.74,1.34,4.27,4.27,0,0,0-.37.22c-.11,0-.23,0-.21.16h0c-.08,0-.12,0-.12.08h0c-.16,0-.39-.11-.47,0-.35.47-.93.61-1.33,1-.09.09-.21.17-.15.32h0c-.46,0-.66.19-.57.64A1.4,1.4,0,0,1,52,30a1.23,1.23,0,0,0,.23.92c.06.11.22.16.28.09.29-.36.8-.52.93-1l0,0c.42.07.78.05.74-.52l0,0c.46-.07,1-.07,1-.72h0c.61-.1.66,0,.51.57a3.54,3.54,0,0,0,0,.87q0,4,0,8a.71.71,0,0,1-.32.65c-.3.24-.88.23-.89.79-.64.42-1.28.84-1.93,1.24a.49.49,0,0,0-.29.47c0,.55,0,1.09,0,1.77l3.78-2.64c0,.44.06.81.06,1.18,0,2.39,0,4.79,0,7.18a.71.71,0,0,1-.32.68A30.74,30.74,0,0,0,45.29,62.2a1.88,1.88,0,0,1-.11.18c-.29,0-.19.28-.2.45h0c-.6.15-.45-.3-.45-.59q0-16.39,0-32.79c0-.5.38-.91.23-1.42h0a1.42,1.42,0,0,0,.65-1.22h0c.43,0,.47-.32.45-.66"/><path class="cls-1" d="M45.49,73.16a3.25,3.25,0,0,1-1.65.38,2.2,2.2,0,0,1-2-1.63,2.72,2.72,0,0,1,.74-3A2.8,2.8,0,0,1,47.3,71,5.6,5.6,0,0,1,44.55,76a6.79,6.79,0,0,1-1.55.81c-.14.05-.31.18-.42-.06s.06-.29.2-.38a6.39,6.39,0,0,0,2.56-2.77c0-.09.07-.19.14-.4m.39-1.93a3.33,3.33,0,0,0-.58-2.07,1,1,0,0,0-1.79.13,2.9,2.9,0,0,0-.36,1.64A2.07,2.07,0,0,0,44,72.61a1.08,1.08,0,0,0,1.81-.78c0-.2,0-.4,0-.6"/><path class="cls-1" d="M55.06,71.58a3.8,3.8,0,0,1,1.63-.22,2.08,2.08,0,0,1,1.38.81,3.07,3.07,0,0,1,.16,3.26,2.75,2.75,0,0,1-2.76,1.28,2.59,2.59,0,0,1-2.27-2.13,4.46,4.46,0,0,1,.9-3.81,7.23,7.23,0,0,1,3.44-2.42c.16-.06.35-.19.45.08s-.14.26-.26.33a6.73,6.73,0,0,0-2.67,2.83m-.53,2.14a3.69,3.69,0,0,0,.42,1.89,1.07,1.07,0,0,0,1,.64,1,1,0,0,0,.92-.68A3,3,0,0,0,56.95,73a1.64,1.64,0,0,0-1.39-1.1c-.45,0-.77.07-.87.58a5.37,5.37,0,0,0-.16,1.21"/><path class="cls-1" d="M39.72,71.88c0,.95,0,1.9,0,2.85s.21,1.11,1.06,1.34c.17,0,.48,0,.46.27s-.35.18-.53.19c-1.19,0-2.37,0-3.56,0-.15,0-.36.08-.39-.17s.2-.22.34-.25c1-.26,1.16-.44,1.18-1.48,0-1.46,0-2.92,0-4.38,0-.92-.21-1.14-1.08-1.39l-.31-.09a.18.18,0,0,1-.14-.2c0-.12.11-.13.2-.14h2.58c.29,0,.24.22.24.39v3.07Z"/><path class="cls-1" d="M48.83,76.77l2-3.71c.52-.94,1-1.89,1.56-2.83.18-.33.21-.49-.25-.47a16,16,0,0,1-2,0,1.49,1.49,0,0,0-1.6,1c-.07.13-.09.42-.35.31s-.08-.32,0-.48c.14-.6.31-1.2.45-1.81.06-.26.16-.36.43-.36,1.41,0,2.82,0,4.22,0,.4,0,.48.13.3.49-1.26,2.51-2.53,5-3.76,7.54-.23.47-.59.21-1,.32"/><path class="cls-1" d="M41.74,63.33c.14-.06.3-.12.36.08s.37.46.57.68c.18-.15.1-.34.1-.51q0-16.77,0-33.53A1.72,1.72,0,0,0,42,28.63a.67.67,0,0,1-.32-.73,7.31,7.31,0,0,1,1.1,1.28,1.07,1.07,0,0,1,.16.73q0,17,0,34v.88l-1.23-1.48"/><path class="cls-1" d="M44.74,28c.16.51-.23.92-.23,1.42q0,16.39,0,32.79c0,.29-.15.73.45.59l-.52,1.47-.14,0c.17-.63-.11-1.23,0-1.88a14.47,14.47,0,0,0,0-1.81q0-15.5,0-31a2.81,2.81,0,0,1,.4-1.56"/><path class="cls-1" d="M54.51,39.55c0-.56.6-.55.89-.79a.71.71,0,0,0,.32-.65q0-4,0-8a3.54,3.54,0,0,1,0-.87c.15-.62.1-.67-.51-.57.22-.17.44-.54.69-.44s.07.49.07.76c0,3,0,6,0,9a.86.86,0,0,1-.5.91c-.36.18-.69.4-1,.6"/><path class="cls-1" d="M68.44,23.69c-1,.17-2,0-3,.08-.81.07-1.61.19-2.41.32a.59.59,0,0,0-.52.77.75.75,0,0,1-.05.54c-.16-1.53-.49-1.26,1.09-1.55a14.36,14.36,0,0,1,4.89-.15"/><path class="cls-1" d="M53.44,30c-.13.5-.63.67-.93,1-.06.07-.22,0-.28-.09A1.24,1.24,0,0,1,52,30a1.39,1.39,0,0,0,0-.68c-.09-.45.12-.65.57-.64a.71.71,0,0,0-.29.65c0,.44,0,.89,0,1.4L53.44,30"/><path class="cls-1" d="M71.19,24.2A13.27,13.27,0,0,1,68.87,24c-.17,0-.19-.13-.2-.27a14.69,14.69,0,0,1,2.53.49"/><path class="cls-1" d="M52.6,28.65c-.06-.16.06-.23.15-.32.39-.4,1-.54,1.33-1,.08-.11.31,0,.47,0a19.11,19.11,0,0,1-1.94,1.33"/><path class="cls-1" d="M40.69,62.38a1.15,1.15,0,0,1,1,.93l-1-.93"/><path class="cls-1" d="M55.26,28.67c-.05.64-.56.64-1,.72a5.33,5.33,0,0,1,1-.72"/><path class="cls-1" d="M45.39,26.82A1.42,1.42,0,0,1,44.74,28a3.17,3.17,0,0,1,.65-1.22"/><path class="cls-1" d="M54.22,29.4c0,.57-.33.59-.74.52l.74-.52"/><path class="cls-1" d="M45.84,26.16c0,.34,0,.63-.45.66a2,2,0,0,1,.45-.66"/><path class="cls-1" d="M45,62.83c0-.18-.09-.4.2-.45a.79.79,0,0,1-.2.45"/><path class="cls-1" d="M41.7,27.91c-.17,0-.24-.06-.24-.22a.32.32,0,0,1,.24.22"/><path class="cls-1" d="M54.69,27.23c0-.17.1-.16.21-.16l-.21.16"/><path class="cls-1" d="M54.55,27.32c0-.08,0-.12.12-.08Z"/><path class="cls-1" d="M62.52,25.85s0,.06,0,.09l0-.06,0,0"/></g></g></svg>